<?xml version="1.0" encoding="UTF-8"?>
<!--Generator: Apple Native CoreSVG 232.5-->
<!DOCTYPE svg
PUBLIC "-//W3C//DTD SVG 1.1//EN"
       "http://www.w3.org/Graphics/SVG/1.1/DTD/svg11.dtd">
<svg version="1.1" xmlns="http://www.w3.org/2000/svg" xmlns:xlink="http://www.w3.org/1999/xlink" width="460.75" height="522.25">
 <g>
  <rect height="522.25" opacity="0" width="460.75" x="0" y="0"/>
  <path d="M440.5 340.75C451.75 340.75 460.75 331.75 460.75 320.75L460.75 201.5C460.75 190.5 451.75 181.25 440.5 181.25C429 181.25 420.5 190.5 420.5 201.5L420.5 320.75C420.5 331.75 429 340.75 440.5 340.75Z" fill="#ffffff" fill-opacity="0.85"/>
  <path d="M356.5 466.75C367.75 466.75 376.5 457.75 376.5 446.75L376.5 75.5C376.5 64.5 367.75 55.25 356.5 55.25C344.75 55.25 336.25 64.5 336.25 75.5L336.25 446.75C336.25 457.75 344.75 466.75 356.5 466.75Z" fill="#ffffff" fill-opacity="0.85"/>
  <path d="M272.25 391C283.75 391 292.5 382.25 292.5 371L292.5 151.25C292.5 140 283.75 131 272.25 131C260.75 131 252.25 140 252.25 151.25L252.25 371C252.25 382.25 260.75 391 272.25 391Z" fill="#ffffff" fill-opacity="0.85"/>
  <path d="M188 522.25C199.5 522.25 208.5 513.25 208.5 502L208.5 20.25C208.5 9 199.5 0 188 0C176.75 0 168.25 9 168.25 20.25L168.25 502C168.25 513.25 176.75 522.25 188 522.25Z" fill="#ffffff" fill-opacity="0.85"/>
  <path d="M104 421.5C115.5 421.5 124.25 412.5 124.25 401.25L124.25 121C124.25 109.75 115.5 100.5 104 100.5C92.75 100.5 84 109.75 84 121L84 401.25C84 412.5 92.75 421.5 104 421.5Z" fill="#ffffff" fill-opacity="0.85"/>
  <path d="M19.75 319.25C31.5 319.25 40.25 310.25 40.25 299L40.25 223.25C40.25 212 31.5 202.75 19.75 202.75C8.5 202.75 0 212 0 223.25L0 299C0 310.25 8.5 319.25 19.75 319.25Z" fill="#ffffff" fill-opacity="0.85"/>
 </g>
</svg>
